<svg width="14" height="14" viewBox="0 0 14 14" fill="none" xmlns="http://www.w3.org/2000/svg">
<g id="cil:check-circle" clip-path="url(#clip0_1168_605)">
<path id="Vector" d="M11.6505 2.37695C10.4262 1.15265 8.76567 0.464844 7.03425 0.464844C5.30283 0.464844 3.64232 1.15265 2.41802 2.37695C1.19372 3.60125 0.50592 5.26175 0.50592 6.99318C0.50592 8.7246 1.19372 10.3851 2.41802 11.6094C3.64232 12.8337 5.30283 13.5215 7.03425 13.5215C8.76567 13.5215 10.4262 12.8337 11.6505 11.6094C12.8748 10.3851 13.5626 8.7246 13.5626 6.99318C13.5626 5.26175 12.8748 3.60125 11.6505 2.37695ZM7.03425 12.6465C3.91706 12.6465 1.38093 10.1104 1.38093 6.99318C1.38093 3.87593 3.91701 1.33985 7.03425 1.33985C10.1515 1.33985 12.6876 3.87593 12.6876 6.99318C12.6876 10.1104 10.1515 12.6465 7.03425 12.6465Z" fill="#F96900"/>
<path id="Vector_2" d="M6.05029 8.36195L4.0429 6.35459L3.42419 6.9733L6.05029 9.5994L10.6304 5.01934L10.0116 4.40063L6.05029 8.36195Z" fill="#F96900"/>
</g>
<defs>
<clipPath id="clip0_1168_605">
<rect width="14" height="14" fill="white"/>
</clipPath>
</defs>
</svg>
